<?xml version="1.0" encoding="UTF-8" standalone="no"?>
<!-- Created with Inkscape (http://www.inkscape.org/) -->

<svg
   xmlns:dc="http://purl.org/dc/elements/1.1/"
   xmlns:cc="http://creativecommons.org/ns#"
   xmlns:rdf="http://www.w3.org/1999/02/22-rdf-syntax-ns#"
   xmlns:svg="http://www.w3.org/2000/svg"
   xmlns="http://www.w3.org/2000/svg"
   xmlns:sodipodi="http://sodipodi.sourceforge.net/DTD/sodipodi-0.dtd"
   xmlns:inkscape="http://www.inkscape.org/namespaces/inkscape"
   version="1.1"
   id="svg2"
   width="823.14648"
   height="130.75781"
   viewBox="0 0 823.14648 130.75781"
   sodipodi:docname="ximera.svg"
   inkscape:version="0.92.1 r">
  <metadata
     id="metadata8">
    <rdf:RDF>
      <cc:Work
         rdf:about="">
        <dc:format>image/svg+xml</dc:format>
        <dc:type
           rdf:resource="http://purl.org/dc/dcmitype/StillImage" />
        <dc:title></dc:title>
      </cc:Work>
    </rdf:RDF>
  </metadata>
  <defs
     id="defs6">
    <inkscape:path-effect
       effect="spiro"
       id="path-effect32"
       is_visible="true" />
    <inkscape:path-effect
       effect="spiro"
       id="path-effect28"
       is_visible="true" />
  </defs>
  <sodipodi:namedview
     pagecolor="#ffffff"
     bordercolor="#666666"
     borderopacity="1"
     objecttolerance="10"
     gridtolerance="10"
     guidetolerance="10"
     inkscape:pageopacity="0"
     inkscape:pageshadow="2"
     inkscape:window-width="1366"
     inkscape:window-height="704"
     id="namedview4"
     showgrid="false"
     inkscape:zoom="0.53807938"
     inkscape:cx="411.57324"
     inkscape:cy="65.378908"
     inkscape:window-x="0"
     inkscape:window-y="27"
     inkscape:window-maximized="1"
     inkscape:current-layer="svg2"
     inkscape:snap-bbox="true"
     inkscape:bbox-paths="false"
     inkscape:bbox-nodes="true"
     inkscape:snap-bbox-edge-midpoints="true"
     inkscape:snap-bbox-midpoints="false"
     inkscape:object-paths="true"
     inkscape:snap-intersection-paths="true"
     inkscape:snap-smooth-nodes="false"
     inkscape:snap-midpoints="false"
     inkscape:snap-object-midpoints="true"
     inkscape:snap-others="true"
     inkscape:object-nodes="false"
     inkscape:snap-nodes="true"
     fit-margin-top="0"
     fit-margin-left="0"
     fit-margin-right="0"
     fit-margin-bottom="0" />
  <path
     style="fill:#000000;fill-opacity:1;stroke:none;stroke-width:3.21819878;stroke-miterlimit:4;stroke-dasharray:none;stroke-dashoffset:0;stroke-opacity:1"
     d="M 233.73633,0.00118027 C 215.70594,0.12351727 200.65884,9.7668373 198.72266,22.440633 l -0.9004,3.0625 V 76.827352 128.15548 H 211.03711 224.25 v -50.812503 -50.8125 c 0.30521,-1.578675 1.81143,-3.003594 4.125,-3.902344 l 0.41406,-0.390624 0.75586,-0.0059 c 1.30337,-0.366145 2.73636,-0.560459 4.19141,-0.568359 1.43021,-0.0055 2.84464,0.169333 4.14062,0.511719 l 0.58203,-0.0039 0.58203,0.363281 c 1.43411,0.522504 2.59743,1.251092 3.3711,2.111329 l 0.61914,0.386718 11.57031,42.921875 11.97656,42.771488 1.2168,3.49609 c 2.94925,9.6569 16.67896,16.62213 32.59375,16.53516 17.52027,-0.11223 30.41457,-9.36664 32.82617,-20.03711 l 10.87305,-40.203128 c 0,0 8.56314,-32.980208 12.16211,-44.251953 0.52427,-2.748876 4.60106,-4.84057 9.48633,-4.867187 4.88581,-0.02664 8.71049,1.859257 9.65039,4.763672 0.003,-0.107339 0.85647,2.009859 1.21875,3.662109 v 49.164063 49.167974 h 12.4375 12.43554 l -0.008,-52.248053 0.30469,-53.564453 C 399.4957,9.6972583 384.18903,0.25943327 366.15801,0.38200727 350.06078,0.50572527 336.08888,8.2591673 332.09551,19.28435 l -0.22656,0.38086 -10.37695,39.269531 c -5.70762,21.59811 -11.09088,41.220419 -11.96094,43.605469 l -0.78906,2.16797 v 0.002 l -0.78907,2.16797 -0.0312,0.0137 c -1.42146,1.809 -4.48935,2.97533 -7.88086,2.9961 -4.83117,0.0257 -8.44126,-2.31554 -8.89453,-5.02539 -3.53567,-13.513689 -7.24972,-27.638562 -10.87695,-41.333989 l -10.91602,-41.201172 -0.1875,-0.363281 0.1875,-0.002 C 267.07457,9.3162463 251.76735,-0.12138973 233.73633,0.00118027 Z m 509.31836,0.359375 c -5.86628,0.08475 -11.54674,1.09434903 -16.29688,2.89648503 -4.49165,2.15643 -9.1406,4.997566 -11.44531,8.7285147 l -25.42969,55.375 c -5.5788,12.152972 -11.37289,24.608756 -17.46875,38.166015 H 644.3789 l -1.20312,-1.73047 c -9.05115,-12.980119 -16.27344,-24.141548 -16.27344,-24.691404 0,-0.03878 0.0392,-0.229109 0.0625,-0.361328 12.0832,-2.381447 22.19836,-11.314872 26.79883,-23.667969 5.03695,-13.541562 2.64806,-29.003676 -6.18359,-40.023437 C 640.37087,6.0620863 629.75721,1.1591523 618.78711,1.7511803 l -0.22266,-0.05664 h -44.02539 -44.02539 -4.66406 -41.1211 -41.12304 c 0,0 -0.98291,0.152349 -1.13672,0.121093 -13.32831,0.377843 -25.64604,5.866762 -32.50586,16.1171877 -6.85969,10.250829 -7.13011,23.037029 -0.70899,33.517578 3.3619,5.477327 8.35763,9.990548 14.41797,13.025391 -6.32336,2.859737 -11.6076,7.298746 -15.22656,12.791015 -6.81941,10.395296 -6.90459,23.309275 -0.22265,33.777345 9.61745,10.72219 19.47245,16.81331 32.90039,16.84375 l 43.14062,0.13281 43.14063,0.13477 v -11.31446 -11.31445 h -40.47071 -35.26172 c -6.93958,-0.10635 -13.10296,-1.32408 -17.15039,-5.755859 -4.26245,-4.6811 -4.9722,-11.02325 -1.82422,-16.30078 4.18656,-5.605078 7.02508,-7.341899 13.76563,-8.560548 h 39.69336 39.69336 v -9.984374 -9.982422 l -38.47656,-0.0098 -38.47657,-0.0078 c -5.43783,-1.096587 -11.07878,-2.715113 -14.375,-6.207032 -4.2634,-4.681532 -4.97318,-11.024696 -1.82422,-16.302734 5.08592,-5.814024 10.86934,-8.432804 16.55664,-8.089844 h 36.9004 39.69531 4.66406 42.02344 42.02344 c 5.24243,0.446955 10.09864,2.546147 12.78906,5.798828 5.36852,6.737193 5.17023,16.937553 -0.45508,23.410156 -3.71948,3.353708 -8.20462,5.325251 -12.33398,5.400391 h -34.79688 -34.79883 l -0.0234,0.01367 -0.0371,-0.0059 c -7.34349,-0.187077 -13.55511,5.843203 -14.1836,13.769531 -0.045,0.606139 -0.0561,1.214675 -0.0332,1.822265 l -0.0879,26.66406 -0.0859,26.95704 h 13.17773 13.17774 l 0.42578,-23.62891 0.42578,-23.626949 20.20899,-0.328131 20.21093,-0.330078 16.22071,23.427738 c 8.92125,12.88434 18.47656,24.48633 18.47656,24.48633 h 9.40039 17.87891 2.33203 15.54687 12.30469 l 2.31445,-4.99219 c 1.27155,-2.74553 11.5928,-25.359229 22.9375,-50.251956 l 19.50977,-42.810547 0.0508,0.0078 c 0.6386,-1.898805 1.71649,-3.544758 3.10938,-4.748047 3.84555,-3.310056 9.18699,-2.57234 12.28906,1.697266 0.75335,1.041395 1.33327,2.242999 1.70898,3.541016 l 20.10547,45.751953 c 12.36015,28.122005 22.47656,51.281785 22.47656,51.466795 0,0.18502 6.37471,0.33789 14.16993,0.33789 h 14.17373 C 816.52172,107.71908 804.70704,88.601221 797.27734,68.385946 L 772.91601,13.274618 c -1.91046,-3.212648 -4.39839,-6.0213417 -7,-7.6328127 -5.71519,-3.467858 -14.11032,-5.40723803 -22.86132,-5.28125003 z M 6.21875,1.6945403 C 16.319055,12.689632 27.143508,23.188362 37.433593,34.051962 L 64.378906,61.762899 63.59375,63.34493 C 63.162913,64.214073 49.640766,78.144766 33.541015,94.301961 23.422489,104.45764 12.341874,115.48996 0,128.15548 H 15.685547 31.36914 L 55.605469,103.86251 C 68.935158,90.500971 80.39835,79.567587 81.076172,79.567587 c 0.677805,0 11.827553,10.933384 24.781248,24.294923 l 23.55469,24.29297 h 15.61523 15.61719 L 129.28516,96.169151 97.921875,64.184774 100.20117,61.891805 c 1.2534,-1.260358 14.98508,-14.996311 30.51563,-30.523437 15.53054,-15.527114 28.23828,-28.5562127 28.23828,-28.9531247 0,-0.396914 -6.88365,-0.720703 -15.29688,-0.720703 H 128.36133 L 105.2539,24.989462 C 92.544693,37.801896 81.983362,48.286337 81.783203,48.286337 c -0.200144,0 -10.329062,-10.484441 -22.503906,-23.296875 L 37.144531,1.6945403 H 21.683593 Z m 158.95508,0 V 64.925009 128.15548 h 13.21484 13.21484 V 64.925009 1.6945403 h -13.21484 z"
     id="path19"
     inkscape:connector-curvature="0"
     sodipodi:nodetypes="cccccccccccccccccccccccccccccccccccccccccccccccccccccccccsccccccccccccccccccccccccccccccccccccccccccccccccccccccccccccccccccccccccssccccccccccccccscccccccsssccsccccccccccccc" />
</svg>
