<?xml version="1.0" encoding="UTF-8" standalone="no"?>
<!-- Created with Inkscape (http://www.inkscape.org/) -->

<svg
   xmlns:dc="http://purl.org/dc/elements/1.1/"
   xmlns:cc="http://creativecommons.org/ns#"
   xmlns:rdf="http://www.w3.org/1999/02/22-rdf-syntax-ns#"
   xmlns:svg="http://www.w3.org/2000/svg"
   xmlns="http://www.w3.org/2000/svg"
   xmlns:sodipodi="http://sodipodi.sourceforge.net/DTD/sodipodi-0.dtd"
   xmlns:inkscape="http://www.inkscape.org/namespaces/inkscape"
   version="1.1"
   id="svg2"
   width="798.69958"
   height="126.93163"
   viewBox="0 0 798.69958 126.93163"
   sodipodi:docname="logo.svg"
   inkscape:version="0.92.1 r">
  <metadata
     id="metadata8">
    <rdf:RDF>
      <cc:Work
         rdf:about="">
        <dc:format>image/svg+xml</dc:format>
        <dc:type
           rdf:resource="http://purl.org/dc/dcmitype/StillImage" />
        <dc:title></dc:title>
      </cc:Work>
    </rdf:RDF>
  </metadata>
  <defs
     id="defs6">
    <inkscape:path-effect
       effect="spiro"
       id="path-effect32"
       is_visible="true" />
    <inkscape:path-effect
       effect="spiro"
       id="path-effect28"
       is_visible="true" />
  </defs>
  <sodipodi:namedview
     pagecolor="#ffffff"
     bordercolor="#666666"
     borderopacity="1"
     objecttolerance="10"
     gridtolerance="10"
     guidetolerance="10"
     inkscape:pageopacity="0"
     inkscape:pageshadow="2"
     inkscape:window-width="1918"
     inkscape:window-height="966"
     id="namedview4"
     showgrid="false"
     inkscape:zoom="0.88407029"
     inkscape:cx="367.26228"
     inkscape:cy="13.667949"
     inkscape:window-x="0"
     inkscape:window-y="25"
     inkscape:window-maximized="0"
     inkscape:current-layer="svg2"
     fit-margin-top="0"
     fit-margin-left="0"
     fit-margin-right="0"
     fit-margin-bottom="0" />
  <path
     style="fill:#000000;stroke-width:1.374107"
     d="M 352.16221,0.63634975 C 338.97875,0.74269654 327.66002,5.8528131 322.45447,14.74385 c -1.49474,2.553024 -7.14436,21.64408 -12.55675,42.424981 -5.41236,20.78089 -10.51742,39.66029 -11.34246,41.95512 -2.36185,6.569389 -8.71965,8.552869 -14.3492,4.474339 -2.48994,-1.80394 -5.11075,-9.992015 -13.42301,-41.94739 C 265.10264,39.813355 259.34594,19.765389 257.98846,17.098967 254.65851,10.558019 245.76805,3.8369256 238.06277,2.0343376 229.31076,-0.01313381 215.15256,0.99406348 208.07274,4.1690251 201.43251,7.146854 196.26672,13.022078 194.07545,20.092171 c -0.91406,2.949193 -1.33928,23.763282 -1.10215,53.920194 l 0.38672,49.117155 10.92674,0.38092 c 7.74524,0.26971 11.2793,-0.10247 12.13911,-1.28004 0.66713,-0.91372 1.22375,-23.098579 1.23556,-49.298913 l 0.0232,-47.637949 -0.0677,-1.444395 c -0.23177,-4.988573 12.69844,-3.011032 15.89027,0.514336 1.78988,1.976906 6.32559,16.571216 12.83713,41.30543 5.53813,21.03671 11.3533,40.919361 12.92414,44.182621 3.48348,7.2365 9.27881,12.2597 16.84934,14.60444 12.09732,3.74674 27.62719,1.60925 35.67094,-4.9094 6.47039,-5.24362 9.20219,-12.45681 20.12097,-53.142895 8.93785,-33.30468 11.46712,-40.988607 14.09976,-42.840704 4.1375,-2.910759 14.8271,-3.970732 15.25413,0.856582 l 0.15662,1.782774 0.41959,48.836777 0.41959,48.836786 11.37533,-0.37318 11.3734,-0.37319 0.38672,-49.757174 C 387.13678,40.001009 385.24418,21.882144 384.14764,18.344202 382.07037,11.642028 373.46839,4.0904884 365.80943,2.2431662 361.15758,1.1211517 356.55661,0.60090082 352.16213,0.63634975 Z"
     id="path4522"
     inkscape:connector-curvature="0" />
  <path
     style="fill:#000000;stroke-width:1.374107"
     d="M 719.74225,0.97472878 C 710.55343,1.012527 703.02388,3.5287505 697.67801,8.3765251 694.81453,10.973209 686.34866,28.145325 668.80946,66.933479 c -6.82471,15.092896 -17.32307,39.048931 -17.32307,39.048931 0,0 -13.74089,-0.44916 -25.0149,-0.085 -1.36032,-2.06305 -18.85641,-28.603236 -18.85641,-28.90143 0,-0.309802 2.57312,-1.703878 5.71764,-3.097617 8.53703,-3.783835 17.51811,-13.363072 20.28726,-21.638848 5.34274,-15.967027 0.0324,-33.801082 -12.54709,-42.136875 C 609.88232,2.7071258 604.22943,2.6659378 558.13829,2.3940264 L 507.36792,2.0943187 h -38.9948 c -43.25097,0 -50.55716,0.820809 -60.88693,6.8352541 -8.97362,5.2248552 -13.77212,12.7402972 -14.71464,23.0523052 -1.03167,11.287339 1.57467,18.267116 9.33925,25.012968 3.56662,3.098653 6.48527,5.863911 6.48527,6.144962 0,0.281051 -2.42569,2.361365 -5.39085,4.623222 -2.96515,2.261849 -6.60009,6.422649 -8.07662,9.246445 -3.3982,6.498798 -3.63737,20.661492 -0.4602,27.269485 4.23538,8.80887 14.15922,15.51033 26.80347,18.09843 3.05316,0.62494 23.559,1.19378 45.56708,1.26457 45.20647,0.14534 41.8043,1.02044 41.8043,-10.75852 0,-11.74106 3.10618,-10.88614 -39.5942,-10.88806 -41.33199,-0.002 -45.91145,-0.70823 -49.92347,-7.684106 -2.53759,-4.412282 -2.34387,-11.668121 0.40219,-15.074299 4.59354,-5.697698 6.95826,-6.027863 47.83712,-6.697968 l 39.06632,-0.64002 V 62.932913 53.966839 L 467.56489,53.32678 c -42.90571,-0.70332 -44.47447,-0.977806 -48.03821,-8.38793 -2.66033,-5.531727 -2.62187,-7.534066 0.23977,-12.77332 4.22469,-7.734777 7.60615,-8.297051 49.86351,-8.297051 h 37.73796 50.86125 c 43.22665,0.708582 45.42439,0.963873 50.0472,6.697969 2.96383,3.676124 2.95262,14.086375 -0.0213,19.082637 -3.99104,6.705257 -8.77528,7.519746 -44.13041,7.519746 -48.26728,0 -46.95883,-1.012388 -47.65342,36.869767 -0.26325,14.357592 -0.10757,26.946152 0.34612,27.973312 0.64546,1.46134 3.31488,1.78571 12.27251,1.49273 l 11.44881,-0.37512 0.73671,-22.41422 0.7367,-22.41229 h 19.16577 19.16385 l 15.58477,22.41229 15.58476,22.41422 c 10.7263,0.38941 22.44809,0.5659 32.01838,0.49887 10.49263,0.23353 25.33024,-0.30736 26.42256,-1.45987 0.83456,-0.88053 11.11331,-22.925353 22.84348,-48.989533 17.87175,-39.710616 21.95154,-47.700028 25.16958,-49.302774 3.52363,-1.754931 4.07571,-1.700575 6.70958,0.641954 1.57882,1.40418 11.94401,23.588883 23.03296,49.300839 11.08898,25.711954 20.8388,47.468984 21.66592,48.349514 1.70702,1.81725 24.06635,2.29035 25.31461,0.53561 1.061,-1.49147 -45.75292,-108.679194 -49.41879,-113.1519799 -4.20831,-5.1345964 -10.71613,-7.690721 -21.48996,-8.4420695 -1.3789,-0.096169 -2.72466,-0.14075128 -4.03734,-0.13535182 z"
     id="path4520"
     inkscape:connector-curvature="0"
     sodipodi:nodetypes="sssccscscccscscsscsscscccccccccssccccsscccccccccccscccscccs" />
  <path
     style="fill:#000000;stroke-width:1.374107"
     d="m 25.052285,2.0942791 c -7.567416,0 -13.757519,0.5140991 -13.757519,1.1408206 0,0.6267215 11.976341,13.6468533 26.613984,28.9342973 14.63764,15.287444 26.412914,28.29575 26.167324,28.907226 -0.245592,0.611487 -12.719835,13.641381 -27.72,28.955564 C 21.355908,105.34638 7.9375593,119.13173 6.538125,120.66612 l -2.5446092,2.79018 14.5889652,0.2185 14.590898,0.21849 L 55.6108,101.09816 C 67.951234,88.560809 79.089482,78.30301 80.364668,78.30301 c 1.275188,0 12.143965,10.229515 24.152522,22.73327 l 21.83414,22.73326 h 13.23352 c 9.61077,0 13.23056,-0.43832 13.22191,-1.60102 -0.007,-0.88053 -12.27091,-14.27972 -27.254,-29.777341 C 110.56968,76.893562 98.301291,63.301694 98.291015,62.18844 98.280818,61.075186 110.54485,47.724776 125.54502,32.519377 140.54518,17.313988 152.81837,4.2484855 152.81837,3.4845332 c 0,-0.8989735 -4.85775,-1.3902541 -13.76913,-1.3902541 H 125.28205 L 104.03766,23.856877 C 92.353515,35.825529 82.055425,45.622419 81.153574,45.629143 80.251723,45.635925 70.355922,35.843912 59.162812,23.868479 L 38.811738,2.0942791 Z"
     id="path4518"
     inkscape:connector-curvature="0" />
  <path
     style="fill:#000000;stroke-width:1.374107"
     d="M 160.18922,2.7342993 159.80637,61.6509 c -0.21132,32.404112 -0.0556,59.66139 0.34611,60.57177 0.53095,1.20317 3.85687,1.55413 12.17778,1.28197 l 11.44687,-0.37512 V 62.932873 2.7342993 h -11.79299 z"
     id="path24"
     inkscape:connector-curvature="0" />
</svg>
